<svg width="300" height="56" viewBox="0 0 300 56" fill="none" xmlns="http://www.w3.org/2000/svg">
<g clip-path="url(#clip0_2_2)">
<path d="M264.041 0.028535C263.782 0.0282653 263.526 0.0791293 263.286 0.178208C263.047 0.277286 262.829 0.422628 262.646 0.605891C262.463 0.789155 262.318 1.00673 262.22 1.24614C262.121 1.48554 262.071 1.74205 262.071 2.00096V15.7773H298.508L281.911 0.028535H264.041Z" fill="black"/>
<path d="M299.841 19.9587C299.843 19.6994 299.793 19.4424 299.695 19.2026C299.596 18.9627 299.451 18.7448 299.268 18.5614C299.084 18.378 298.866 18.2329 298.626 18.1343C298.386 18.0358 298.129 17.9858 297.87 17.9873H284.091V54.3899L299.841 37.8175V19.9587Z" fill="black"/>
<path d="M279.894 55.7233C280.417 55.7214 280.918 55.5129 281.288 55.1434C281.657 54.7739 281.866 54.2733 281.867 53.7508V39.9775H245.437L262.02 55.7192L279.894 55.7233Z" fill="black"/>
<path d="M244.093 35.8084C244.096 36.3294 244.305 36.828 244.675 37.1951C245.045 37.5621 245.546 37.7676 246.067 37.7666H259.857V1.36183L244.111 17.9404L244.093 35.8084Z" fill="black"/>
<path d="M77.0807 6.67465V23.4917H53.639V6.67465H45.108V49.0721H53.639V30.8544H77.0807V49.0721H85.6383V6.67465H77.0807Z" fill="black"/>
<path d="M190.666 6.67465V49.0588H228.125L223.401 41.5983H199.236V30.8544H222.637V23.6681H199.236V13.967H223.354L228.012 6.67465H190.666Z" fill="black"/>
<path d="M13.3658 6.67056C4.48384 6.67056 -0.00762939 12.0619 -0.00762939 19.9271V35.7411C-0.00762939 44.8275 5.77221 49.0721 13.3148 49.0721L40.1034 49.0598L35.1407 41.3128H14.9734C10.6891 41.3128 8.81923 39.7675 8.81923 34.9725V20.6233C8.81923 15.9863 10.3943 14.176 15.0897 14.176H35.3498L40.1157 6.67056H13.3658Z" fill="black"/>
<path d="M153.208 6.66241C148.071 6.66241 142.821 9.74795 142.821 17.6713V19.7038C142.821 27.9605 147.878 31.1082 152.939 31.1419H170.7C172.554 31.1419 174.046 31.4477 174.046 34.5546V38.159C174.001 40.9591 172.602 41.5983 170.643 41.5983H147.276L142.482 49.0588H171.199C178.119 49.0588 182.814 45.6155 182.814 37.6646V34.7483C182.814 27.0676 178.442 23.4265 171.674 23.4265H154.715C152.833 23.4265 151.526 22.926 151.526 20.132V17.2054C151.526 14.8324 152.433 13.967 154.626 13.967L176.864 13.9548L181.52 6.65935L153.208 6.66241Z" fill="black"/>
<path d="M110.451 6.68076L90.3256 49.0588H99.8329L103.752 40.319H125.617L129.513 49.0588H139.058L118.911 6.68076H110.451ZM114.657 15.4828L122.393 33.0939H106.976L114.657 15.4828Z" fill="black"/>
</g>
<defs>
<clipPath id="clip0_2_2">
<rect width="300" height="55.9006" fill="white"/>
</clipPath>
</defs>
</svg>
