<?xml version="1.0" encoding="UTF-8"?><svg width="48" height="48" viewBox="0 0 48 48" fill="none" xmlns="http://www.w3.org/2000/svg">
<path d="M24 48C37.2548 48 48 37.2548 48 24C48 10.7452 37.2548 0 24 0C10.7452 0 0 10.7452 0 24C0 37.2548 10.7452 48 24 48Z" fill="#e8f5fe"/>
<path d="M33.3 20.8259L29.928 18.8999C28.2056 17.9165 26.2564 17.3995 24.273 17.3999H21.096C19.6459 17.399 18.209 17.676 16.863 18.2159L10.758 20.6579C10.1909 20.8832 9.58628 20.9993 8.97602 20.9999H8.10002C7.94089 20.9999 7.78828 21.0631 7.67576 21.1756C7.56324 21.2882 7.50002 21.4408 7.50002 21.5999V23.6999H7.20002C7.12046 23.6999 7.04415 23.7315 6.98789 23.7878C6.93163 23.844 6.90002 23.9203 6.90002 23.9999V26.0999H42.3V24.2999C42.2996 23.7203 42.0895 23.1604 41.7085 22.7237C41.3274 22.287 40.8012 22.0029 40.227 21.9239L33.945 21.0569C33.7175 21.0208 33.4987 20.9424 33.3 20.8259V20.8259Z" fill="#0091da"/>
<path d="M42.3 24.3C42.3004 24.0976 42.2752 23.896 42.225 23.7H7.20002C7.12046 23.7 7.04415 23.7316 6.98789 23.7878C6.93163 23.8441 6.90002 23.9204 6.90002 24V26.1H42.3V24.3Z" fill="#005eb8"/>
<path d="M41.493 22.5H40.5C40.3409 22.5 40.1883 22.5632 40.0758 22.6757C39.9632 22.7883 39.9 22.9409 39.9 23.1C39.9 23.2591 39.9632 23.4117 40.0758 23.5243C40.1883 23.6368 40.3409 23.7 40.5 23.7H42.225C42.1063 23.2359 41.8513 22.818 41.493 22.5Z" fill="#ffb81c"/>
<path d="M14.88 20.2981L17.4 19.2871C18.5363 18.8324 19.7491 18.5992 20.973 18.6001H24.432C26.1031 18.6003 27.7452 19.0366 29.196 19.8661L31.5 21.1801C31.5431 21.2049 31.5767 21.2433 31.5957 21.2892C31.6147 21.3351 31.6179 21.3861 31.6049 21.434C31.5919 21.482 31.5633 21.5243 31.5237 21.5544C31.4841 21.5844 31.4357 21.6005 31.386 21.6001H15.132C14.9749 21.6006 14.8225 21.5462 14.7012 21.4464C14.5798 21.3466 14.4971 21.2076 14.4673 21.0534C14.4374 20.8991 14.4623 20.7393 14.5376 20.6014C14.613 20.4636 14.734 20.3563 14.88 20.2981Z" fill="white"/>
<path d="M31.5 21.18L29.199 19.866C28.3508 19.3815 27.433 19.0304 26.478 18.825L23.7 21.6H31.383C31.433 21.601 31.4819 21.5854 31.522 21.5556C31.5621 21.5258 31.5912 21.4835 31.6046 21.4354C31.618 21.3872 31.615 21.336 31.5961 21.2897C31.5771 21.2435 31.5433 21.2049 31.5 21.18V21.18Z" fill="#e8f5fe"/>
<path d="M9.3 23.7H7.5V22.5H9.3C9.45913 22.5 9.61174 22.5632 9.72426 22.6757C9.83679 22.7883 9.9 22.9409 9.9 23.1C9.9 23.2591 9.83679 23.4117 9.72426 23.5243C9.61174 23.6368 9.45913 23.7 9.3 23.7Z" fill="#ffb81c"/>
<path d="M38.874 26.1C38.6776 25.4096 38.2615 24.8022 37.6887 24.3696C37.1159 23.9371 36.4178 23.7031 35.7 23.7031C34.9823 23.7031 34.2841 23.9371 33.7114 24.3696C33.1386 24.8022 32.7225 25.4096 32.526 26.1H17.274C17.0776 25.4096 16.6614 24.8022 16.0887 24.3696C15.5159 23.9371 14.8178 23.7031 14.1 23.7031C13.3823 23.7031 12.6841 23.9371 12.1114 24.3696C11.5386 24.8022 11.1225 25.4096 10.926 26.1H6.90002C6.90002 26.5773 7.08967 27.0352 7.42723 27.3727C7.7648 27.7103 8.22263 27.9 8.70002 27.9H10.926C11.1225 28.5903 11.5386 29.1977 12.1114 29.6303C12.6841 30.0628 13.3823 30.2968 14.1 30.2968C14.8178 30.2968 15.5159 30.0628 16.0887 29.6303C16.6614 29.1977 17.0776 28.5903 17.274 27.9H32.526C32.7225 28.5903 33.1386 29.1977 33.7114 29.6303C34.2841 30.0628 34.9823 30.2968 35.7 30.2968C36.4178 30.2968 37.1159 30.0628 37.6887 29.6303C38.2615 29.1977 38.6776 28.5903 38.874 27.9H40.5C40.9774 27.9 41.4353 27.7103 41.7728 27.3727C42.1104 27.0352 42.3 26.5773 42.3 26.1H38.874Z" fill="#002f6c"/>
<path d="M14.1 28.5C14.9284 28.5 15.6 27.8284 15.6 27C15.6 26.1716 14.9284 25.5 14.1 25.5C13.2715 25.5 12.6 26.1716 12.6 27C12.6 27.8284 13.2715 28.5 14.1 28.5Z" fill="white"/>
<path d="M35.7 28.5C36.5284 28.5 37.2 27.8284 37.2 27C37.2 26.1716 36.5284 25.5 35.7 25.5C34.8716 25.5 34.2 26.1716 34.2 27C34.2 27.8284 34.8716 28.5 35.7 28.5Z" fill="white"/>
<path d="M22.8 18H21.6V22.8H22.8V18Z" fill="#0091da"/>
</svg>
