<?xml version="1.0" encoding="UTF-8"?><svg width="48" height="48" viewBox="0 0 48 48" fill="none" xmlns="http://www.w3.org/2000/svg">
<path d="M24 48C37.2548 48 48 37.2548 48 24C48 10.7452 37.2548 0 24 0C10.7452 0 0 10.7452 0 24C0 37.2548 10.7452 48 24 48Z" fill="#e8f5fe"/>
<path d="M12 25.8C11.2044 25.8 10.4413 25.4839 9.87868 24.9213C9.31607 24.3587 9 23.5956 9 22.8C9 22.6408 9.06321 22.4882 9.17574 22.3757C9.28826 22.2632 9.44087 22.2 9.6 22.2C9.75913 22.2 9.91174 22.2632 10.0243 22.3757C10.1368 22.4882 10.2 22.6408 10.2 22.8C10.2 23.2773 10.3896 23.7352 10.7272 24.0727C11.0648 24.4103 11.5226 24.6 12 24.6C12.4774 24.6 12.9352 24.4103 13.2728 24.0727C13.6104 23.7352 13.8 23.2773 13.8 22.8C13.8 22.6408 13.8632 22.4882 13.9757 22.3757C14.0883 22.2632 14.2409 22.2 14.4 22.2C14.5591 22.2 14.7117 22.2632 14.8243 22.3757C14.9368 22.4882 15 22.6408 15 22.8C15 23.5956 14.6839 24.3587 14.1213 24.9213C13.5587 25.4839 12.7956 25.8 12 25.8Z" fill="#002f6c"/>
<path d="M38.4 21.6001H35.622C35.2771 20.5504 34.7355 19.5761 34.026 18.7291C34.477 18.248 34.8314 17.6848 35.07 17.0701C35.3961 16.2203 35.5094 15.3037 35.4 14.4001C34.4964 14.2907 33.5798 14.404 32.73 14.7301C32.0536 14.9945 31.4403 15.3983 30.93 15.9151C30.879 15.9661 30.834 16.0231 30.786 16.0741C28.7003 14.9554 26.3666 14.3797 24 14.4001C17.373 14.4001 12 18.6991 12 24.0001C12 29.3011 17.373 33.6001 24 33.6001C29.04 33.6001 33.354 31.1131 35.13 27.6001L38.4 26.4001V21.6001Z" fill="#0091da"/>
<path d="M35.88 25.3501C34.179 28.1581 30.498 30.3931 25.92 31.0261C24.6061 31.2083 23.2762 31.2465 21.954 31.1401C19.6911 31.0857 17.4867 30.4101 15.582 29.1871C13.941 28.1851 12.717 26.8531 12.114 25.2871C12.51 27.6421 13.965 29.7211 16.086 31.2001L18 36.0001H21.6V33.4051C23.1895 33.6651 24.8106 33.6651 26.4 33.4051V36.0001H30L31.914 31.2001C34.017 29.7361 35.469 27.6781 35.88 25.3501Z" fill="#005eb8"/>
<path d="M24 17.4C25.9882 17.4 27.6 15.7882 27.6 13.8C27.6 11.8117 25.9882 10.2 24 10.2C22.0118 10.2 20.4 11.8117 20.4 13.8C20.4 15.7882 22.0118 17.4 24 17.4Z" fill="#ffb81c"/>
<path d="M27.6 18.5731C27.5358 18.5733 27.472 18.5631 27.411 18.5431C25.194 17.8231 22.806 17.8231 20.589 18.5431C20.5139 18.5679 20.4347 18.5777 20.3559 18.5719C20.2771 18.5661 20.2001 18.5449 20.1295 18.5093C19.9869 18.4376 19.8786 18.3121 19.8285 18.1606C19.7784 18.009 19.7905 17.8437 19.8622 17.7011C19.934 17.5585 20.0594 17.4502 20.211 17.4001C22.6735 16.5991 25.3265 16.5991 27.789 17.4001C27.9247 17.4447 28.04 17.5362 28.1142 17.6582C28.1885 17.7803 28.2167 17.9248 28.194 18.0658C28.1712 18.2068 28.0988 18.335 27.99 18.4275C27.8811 18.5199 27.7428 18.5705 27.6 18.5701V18.5731Z" fill="white"/>
<path d="M31.2 22.7999C31.8627 22.7999 32.4 22.2626 32.4 21.5999C32.4 20.9372 31.8627 20.3999 31.2 20.3999C30.5373 20.3999 30 20.9372 30 21.5999C30 22.2626 30.5373 22.7999 31.2 22.7999Z" fill="#002f6c"/>
</svg>
