<?xml version="1.0" encoding="UTF-8"?><svg width="48" height="48" viewBox="0 0 48 48" fill="none" xmlns="http://www.w3.org/2000/svg">
<path d="M24 41.6401C20.5111 41.6401 17.1006 40.6055 14.1997 38.6672C11.2989 36.7289 9.03789 33.9739 7.70276 30.7507C6.36763 27.5274 6.0183 23.9805 6.69894 20.5587C7.37958 17.1369 9.05963 13.9938 11.5266 11.5268C13.9936 9.05975 17.1368 7.37971 20.5586 6.69906C23.9804 6.01842 27.5272 6.36775 30.7505 7.70288C33.9738 9.03801 36.7288 11.299 38.6671 14.1999C40.6054 17.1007 41.64 20.5113 41.64 24.0001C41.6344 28.6768 39.7742 33.1604 36.4672 36.4673C33.1603 39.7743 28.6767 41.6346 24 41.6401V41.6401ZM24 8.04011C20.8434 8.04011 17.7577 8.97615 15.1331 10.7299C12.5085 12.4836 10.4629 14.9762 9.25488 17.8925C8.0469 20.8088 7.73084 24.0178 8.34666 27.1138C8.96248 30.2097 10.4825 33.0535 12.7146 35.2855C14.9466 37.5176 17.7904 39.0376 20.8864 39.6535C23.9823 40.2693 27.1913 39.9532 30.1076 38.7452C33.0239 37.5373 35.5165 35.4916 37.2702 32.867C39.024 30.2424 39.96 27.1567 39.96 24.0001C39.9544 19.769 38.2712 15.7127 35.2793 12.7208C32.2874 9.72895 28.2311 8.04567 24 8.04011V8.04011Z" fill="#005eb8"/>
<path d="M24 26.0999C25.1598 26.0999 26.1 25.1597 26.1 23.9999C26.1 22.8401 25.1598 21.8999 24 21.8999C22.8402 21.8999 21.9 22.8401 21.9 23.9999C21.9 25.1597 22.8402 26.0999 24 26.0999Z" fill="#005eb8"/>
<path d="M15.6 26.0999C16.7598 26.0999 17.7 25.1597 17.7 23.9999C17.7 22.8401 16.7598 21.8999 15.6 21.8999C14.4402 21.8999 13.5 22.8401 13.5 23.9999C13.5 25.1597 14.4402 26.0999 15.6 26.0999Z" fill="#005eb8"/>
<path d="M32.4 26.0999C33.5598 26.0999 34.5 25.1597 34.5 23.9999C34.5 22.8401 33.5598 21.8999 32.4 21.8999C31.2402 21.8999 30.3 22.8401 30.3 23.9999C30.3 25.1597 31.2402 26.0999 32.4 26.0999Z" fill="#005eb8"/>
</svg>
