<svg xmlns="http://www.w3.org/2000/svg" width="48" height="48" viewBox="0 0 48 48"><path d="M38.039,24.991a16.8,16.8,0,0,0-23.758,0L26.16,36.87h16.8A16.743,16.743,0,0,0,38.039,24.991Z" fill="#e8f5fe"/><rect width="48" height="48" fill="none"/><path d="M28.8,36.174h0L26.1,25.04,23.513,36.2h0a2.729,2.729,0,1,0,5.374.655A2.692,2.692,0,0,0,28.8,36.174Z" fill="#005eb8"/><path d="M38.039,24.992,41.6,21.428a21.768,21.768,0,0,0-15.443-6.4v5.04A16.743,16.743,0,0,1,38.039,24.992Z" fill="#8bbe4b"/><path d="M10.717,21.428a21.772,21.772,0,0,0-6.4,15.443H9.36a16.743,16.743,0,0,1,4.921-11.879Z" fill="#e35205"/><path d="M26.16,20.071v-5.04a21.768,21.768,0,0,0-15.443,6.4l3.564,3.564A16.743,16.743,0,0,1,26.16,20.071Z" fill="#ffb81c"/><path d="M41.6,21.428l-3.564,3.564A16.743,16.743,0,0,1,42.96,36.871H48A21.772,21.772,0,0,0,41.6,21.428Z" fill="#55951b"/><path d="M35.453,7.093l-1.5.752.868,1.737A28.651,28.651,0,0,0,.272,24.631a.84.84,0,1,0,1.518.719A26.96,26.96,0,0,1,34.362,11.2l-1.837.919.752,1.5,4.351-2.175Z" fill="#e8f5fe"/></svg>