<?xml version="1.0" encoding="UTF-8"?><svg width="48" height="48" viewBox="0 0 48 48" fill="none" xmlns="http://www.w3.org/2000/svg">
<path d="M24 48C37.2548 48 48 37.2548 48 24C48 10.7452 37.2548 0 24 0C10.7452 0 0 10.7452 0 24C0 37.2548 10.7452 48 24 48Z" fill="#e8f5fe"/>
<path d="M13.14 16.2601C12.33 16.4701 11.85 17.2801 12.06 18.0901C12.24 18.7501 12.84 19.2301 13.53 19.2301H25.92V12.8401L13.14 16.2601Z" fill="#002f6c"/>
<path d="M15.81 21.39L23.01 8.84999C23.34 8.27999 24.09 8.06999 24.66 8.39999L33 13.2C33.57 13.53 33.78 14.28 33.45 14.85L26.25 27.39C25.92 27.96 25.17 28.17 24.6 27.84L16.26 23.04C15.69 22.71 15.48 21.99 15.81 21.39Z" fill="#0091da"/>
<path d="M31.98 17.3999H18.12L17.07 19.1999H30.93L31.98 17.3999Z" fill="#005eb8"/>
<path d="M25.6401 9.17312L17.2401 23.7219L19.3185 24.9219L27.7185 10.3731L25.6401 9.17312Z" fill="#002f6c"/>
<path d="M28.39 12.8224L26.89 15.4204L28.4488 16.3204L29.9488 13.7224L28.39 12.8224Z" fill="#ffb81c"/>
<path d="M34.8 36H13.2C12.54 36 12 35.46 12 34.8V17.7C12 18.54 12.66 19.2 13.5 19.2H34.8C35.46 19.2 36 19.74 36 20.4V24.6L35.4 27.6L36 30.6V34.8C36 35.46 35.46 36 34.8 36Z" fill="#0091da"/>
<path d="M29.4 24.6001H36V30.6001H29.4C27.75 30.6001 26.4 29.2501 26.4 27.6001C26.4 25.9501 27.75 24.6001 29.4 24.6001Z" fill="white"/>
<path d="M29.4 29.4C30.3941 29.4 31.2 28.5942 31.2 27.6C31.2 26.6059 30.3941 25.8 29.4 25.8C28.4059 25.8 27.6 26.6059 27.6 27.6C27.6 28.5942 28.4059 29.4 29.4 29.4Z" fill="#002f6c"/>
</svg>
