<?xml version="1.0" encoding="UTF-8"?><svg width="48" height="48" viewBox="0 0 48 48" fill="none" xmlns="http://www.w3.org/2000/svg">
<path d="M24 48C37.2548 48 48 37.2548 48 24C48 10.7452 37.2548 0 24 0C10.7452 0 0 10.7452 0 24C0 37.2548 10.7452 48 24 48Z" fill="#e8f5fe"/>
<path d="M24.552 7.79995C24.552 7.46858 24.2834 7.19995 23.952 7.19995C23.6206 7.19995 23.352 7.46858 23.352 7.79995V10.2C23.352 10.5313 23.6206 10.8 23.952 10.8C24.2834 10.8 24.552 10.5313 24.552 10.2V7.79995Z" fill="#ffb81c"/>
<path d="M16.3261 10.0816C16.1313 9.8135 15.7561 9.75407 15.488 9.94884C15.2199 10.1436 15.1605 10.5188 15.3552 10.7869L16.7836 12.7528C16.9783 13.0209 17.3535 13.0803 17.6216 12.8856C17.8897 12.6908 17.9491 12.3156 17.7544 12.0475L16.3261 10.0816Z" fill="#ffb81c"/>
<path d="M11.0127 16.7644C10.6975 16.662 10.359 16.8344 10.2566 17.1496C10.1542 17.4647 10.3267 17.8032 10.6419 17.9056L12.9672 18.6612C13.2823 18.7636 13.6208 18.5911 13.7232 18.2759C13.8256 17.9608 13.6532 17.6223 13.338 17.5199L11.0127 16.7644Z" fill="#ffb81c"/>
<path d="M31.5801 10.0853L30.1853 12.0051C29.9905 12.2732 30.05 12.6484 30.3181 12.8431C30.5861 13.0379 30.9614 12.9785 31.1561 12.7104L32.5509 10.7906C32.7457 10.5225 32.6863 10.1473 32.4182 9.95253C32.1501 9.75776 31.7749 9.81719 31.5801 10.0853Z" fill="#ffb81c"/>
<path d="M36.8897 16.767L34.65 17.4948C34.3348 17.5972 34.1624 17.9357 34.2648 18.2508C34.3672 18.566 34.7056 18.7384 35.0208 18.636L37.2605 17.9083C37.5757 17.8059 37.7482 17.4674 37.6458 17.1523C37.5434 16.8371 37.2049 16.6646 36.8897 16.767Z" fill="#ffb81c"/>
<path d="M21.6 32.3999H21.507C21.5557 32.7982 21.5837 33.1987 21.591 33.5999L26.391 32.9999L21.6 32.3999Z" fill="white"/>
<path d="M22.2 38.325L21.6 37.2V34.8H24.48L26.4 35.4L25.8 37.725L22.2 38.325Z" fill="white"/>
<path d="M26.4 36.5999L21.6 37.1999V35.9999L26.4 35.3999V36.5999Z" fill="#005eb8"/>
<path d="M31.2 21.6C31.2001 20.423 30.9116 19.2639 30.3599 18.2243C29.8081 17.1846 29.0099 16.296 28.0351 15.6364C27.0604 14.9768 25.9387 14.5662 24.7684 14.4405C23.5982 14.3149 22.4149 14.4781 21.3224 14.9158C20.2298 15.3536 19.2612 16.0524 18.5013 16.9513C17.7415 17.8502 17.2136 18.9217 16.9639 20.0719C16.7142 21.2221 16.7503 22.416 17.069 23.549C17.3877 24.682 17.9793 25.7196 18.792 26.571C20.2876 28.1736 21.2334 30.2112 21.492 32.388H21.585L26.586 31.764C26.9769 29.7817 27.9118 27.9472 29.286 26.466C30.513 25.1423 31.1964 23.4049 31.2 21.6V21.6Z" fill="#fba14b"/>
<path d="M28.5 20.9999C28.501 19.5998 28.0937 18.2297 27.328 17.0575C26.5623 15.8853 25.4715 14.9617 24.189 14.3999C23.976 14.3999 23.76 14.3999 23.541 14.3999C22.1703 14.485 20.8525 14.9604 19.7431 15.77C18.6337 16.5795 17.779 17.6895 17.2798 18.9689C16.7806 20.2483 16.6577 21.6438 16.9256 22.9907C17.1936 24.3377 17.8412 25.5799 18.792 26.5709C20.2876 28.1735 21.2334 30.2111 21.492 32.3879H21.585L23.745 32.1179C23.9904 29.7825 24.9849 27.5893 26.58 25.8659C27.8092 24.5431 28.4947 22.8056 28.5 20.9999V20.9999Z" fill="#ffb81c"/>
<path d="M26.4 35.4L21.6 34.8L26.4 34.2V35.4Z" fill="#e8f5fe"/>
<path d="M25.8 37.7251L21.6 37.2001L26.4 36.6001L25.8 37.7251Z" fill="#e8f5fe"/>
<path d="M25.8 37.7251L22.2 38.3251C22.2 38.5638 22.2948 38.7927 22.4636 38.9615C22.6324 39.1303 22.8613 39.2251 23.1 39.2251H24.9C25.1387 39.2251 25.3676 39.1303 25.5364 38.9615C25.7052 38.7927 25.8 38.5638 25.8 38.3251V37.7251Z" fill="#005eb8"/>
<path d="M26.436 33H26.4L21.6 33.6C21.6 33.678 21.6 33.756 21.6 33.834V34.8L26.4 34.2V33.834C26.4 33.555 26.415 33.279 26.436 33Z" fill="#005eb8"/>
<path d="M26.4 33.0001H26.436C26.468 32.5903 26.5231 32.1826 26.601 31.7791L21.6 32.4001L26.4 33.0001Z" fill="#e8f5fe"/>
</svg>
