<?xml version="1.0" encoding="UTF-8"?><svg width="48" height="48" viewBox="0 0 48 48" fill="none" xmlns="http://www.w3.org/2000/svg">
<path d="M28.95 12.825C29.0777 12.8988 29.2225 12.9381 29.37 12.939C29.5172 12.9387 29.6618 12.8998 29.7892 12.8261C29.9166 12.7524 30.0224 12.6465 30.096 12.519L31.356 10.335C31.4674 10.142 31.4976 9.91275 31.4399 9.69755C31.3822 9.48235 31.2415 9.29888 31.0485 9.18749C30.8556 9.0761 30.6263 9.04591 30.4111 9.10358C30.1959 9.16125 30.0124 9.30204 29.901 9.49499L28.641 11.679C28.5302 11.872 28.5005 12.101 28.5584 12.3159C28.6164 12.5308 28.7572 12.7139 28.95 12.825V12.825Z" fill="#005eb8"/>
<path d="M31.56 30.2999C32.4878 30.2999 33.24 29.5478 33.24 28.6199C33.24 27.6921 32.4878 26.9399 31.56 26.9399C30.6322 26.9399 29.88 27.6921 29.88 28.6199C29.88 29.5478 30.6322 30.2999 31.56 30.2999Z" fill="#005eb8"/>
<path d="M38.28 16.4399H35.154L37.821 11.8199C38.1549 11.2414 38.2454 10.554 38.0727 9.90879C37.9 9.26357 37.4782 8.7133 36.9 8.3789L25.26 1.6589C24.6815 1.32505 23.9941 1.23453 23.3489 1.40723C22.7037 1.57992 22.1534 2.00171 21.819 2.5799L17.43 10.1819L9.345 12.3479C9.29125 12.363 9.23903 12.3831 9.189 12.4079C8.6711 12.5862 8.21302 12.9051 7.866 13.3289L7.779 13.4399C7.72119 13.5166 7.66809 13.5968 7.62 13.6799C7.578 13.7519 7.536 13.8269 7.497 13.9079C7.46123 13.9802 7.42919 14.0543 7.401 14.1299C7.35757 14.2424 7.3215 14.3577 7.293 14.4749C7.27718 14.5272 7.26416 14.5802 7.254 14.6339C7.21893 14.8138 7.20085 14.9966 7.2 15.1799V30.2099C6.34947 30.8651 5.64844 31.6942 5.14368 32.6417C4.63893 33.5893 4.34204 34.6337 4.27284 35.7051C4.20364 36.7765 4.36371 37.8503 4.74238 38.855C5.12105 39.8596 5.7096 40.7719 6.46878 41.5311C7.22796 42.2903 8.1403 42.8789 9.14494 43.2575C10.1496 43.6362 11.2234 43.7963 12.2948 43.7271C13.3662 43.6579 14.4106 43.361 15.3582 42.8562C16.3057 42.3515 17.1348 41.6504 17.79 40.7999H38.28C38.9481 40.7991 39.5886 40.5334 40.061 40.0609C40.5335 39.5885 40.7992 38.948 40.8 38.2799V18.9599C40.7992 18.2918 40.5335 17.6513 40.061 17.1789C39.5886 16.7065 38.9481 16.4407 38.28 16.4399V16.4399ZM36.06 9.8399C36.2513 9.95253 36.3902 10.1363 36.4464 10.351C36.5026 10.5657 36.4716 10.794 36.36 10.9859L33.21 16.4459H21.444L27.96 5.1569L36.06 9.8399ZM23.274 3.4199C23.3295 3.32489 23.4032 3.24176 23.4908 3.17525C23.5785 3.10874 23.6784 3.06016 23.7848 3.0323C23.8912 3.00443 24.0021 2.99783 24.1111 3.01286C24.2201 3.02789 24.3251 3.06427 24.42 3.1199L26.505 4.3199L19.5 16.4399H15.756L23.274 3.4199ZM8.91 14.9309L8.925 14.8679C8.93666 14.8212 8.95068 14.7752 8.967 14.7299L9.009 14.6429C9.02526 14.608 9.04329 14.574 9.063 14.5409C9.08722 14.4991 9.11429 14.459 9.144 14.4209L9.174 14.3849C9.33602 14.1904 9.55216 14.0484 9.795 13.9769C9.83191 13.9666 9.86801 13.9535 9.903 13.9379L16.242 12.2399L13.815 16.4399H10.14C9.80583 16.4399 9.48534 16.3072 9.24905 16.0709C9.01275 15.8346 8.88 15.5141 8.88 15.1799C8.88149 15.0961 8.89154 15.0127 8.91 14.9309V14.9309ZM11.82 42.0599C10.657 42.0599 9.52021 41.715 8.55325 41.0689C7.58629 40.4228 6.83263 39.5045 6.38759 38.4301C5.94255 37.3557 5.8261 36.1734 6.05298 35.0328C6.27986 33.8922 6.83988 32.8444 7.66221 32.0221C8.48455 31.1998 9.53226 30.6398 10.6729 30.4129C11.8135 30.186 12.9958 30.3024 14.0702 30.7475C15.1446 31.1925 16.0629 31.9462 16.709 32.9132C17.3551 33.8801 17.7 35.0169 17.7 36.1799C17.6984 37.7389 17.0784 39.2336 15.976 40.3359C14.8737 41.4383 13.379 42.0583 11.82 42.0599V42.0599ZM39.12 31.9799H31.56C30.6689 31.9799 29.8142 31.6259 29.1841 30.9958C28.554 30.3657 28.2 29.511 28.2 28.6199C28.2 27.7288 28.554 26.8741 29.1841 26.244C29.8142 25.6139 30.6689 25.2599 31.56 25.2599H39.12V31.9799ZM39.12 23.5799H31.56C30.8981 23.5799 30.2428 23.7103 29.6313 23.9636C29.0198 24.2168 28.4642 24.5881 27.9962 25.0561C27.5282 25.5241 27.1569 26.0797 26.9036 26.6912C26.6504 27.3027 26.52 27.958 26.52 28.6199C26.52 29.2818 26.6504 29.9371 26.9036 30.5486C27.1569 31.1601 27.5282 31.7157 27.9962 32.1837C28.4642 32.6517 29.0198 33.023 29.6313 33.2763C30.2428 33.5295 30.8981 33.6599 31.56 33.6599H39.12V38.2799C39.1192 38.5024 39.0305 38.7156 38.8731 38.873C38.7157 39.0304 38.5025 39.1191 38.28 39.1199H18.78C19.3609 37.7352 19.5165 36.2088 19.2269 34.7354C18.9373 33.2619 18.2156 31.908 17.1537 30.8462C16.0919 29.7843 14.738 29.0626 13.2645 28.773C11.7911 28.4834 10.2647 28.639 8.88 29.2199V17.8349C9.27331 18.0232 9.70394 18.1206 10.14 18.1199H38.28C38.5025 18.1207 38.7157 18.2094 38.8731 18.3668C39.0305 18.5242 39.1192 18.7374 39.12 18.9599V23.5799Z" fill="#005eb8"/>
<path d="M14.97 34.944L13.032 34.662C12.9986 34.6562 12.967 34.6429 12.9395 34.6232C12.9119 34.6035 12.8892 34.5778 12.873 34.548L12 32.793C11.9828 32.7575 11.956 32.7276 11.9225 32.7066C11.8891 32.6857 11.8504 32.6746 11.811 32.6746C11.7715 32.6746 11.7329 32.6857 11.6995 32.7066C11.666 32.7276 11.6392 32.7575 11.622 32.793L10.758 34.548C10.7418 34.5778 10.7191 34.6035 10.6915 34.6232C10.664 34.6429 10.6324 34.6562 10.599 34.662L8.661 34.944C8.62266 34.9502 8.58678 34.9669 8.55735 34.9922C8.52791 35.0175 8.50608 35.0505 8.49427 35.0875C8.48245 35.1245 8.48113 35.164 8.49044 35.2017C8.49975 35.2394 8.51933 35.2738 8.547 35.301L9.948 36.666C9.97192 36.6901 9.98981 36.7195 10.0002 36.7519C10.0107 36.7842 10.0133 36.8185 10.008 36.852L9.678 38.781C9.67184 38.8191 9.67627 38.8581 9.6908 38.8938C9.70533 38.9295 9.7294 38.9605 9.76038 38.9834C9.79136 39.0063 9.82805 39.0203 9.86644 39.0237C9.90482 39.0272 9.94342 39.02 9.978 39.003L11.709 38.103C11.7399 38.0881 11.7737 38.0804 11.808 38.0804C11.8423 38.0804 11.8761 38.0881 11.907 38.103L13.638 39.003C13.6726 39.02 13.7112 39.0272 13.7496 39.0237C13.7879 39.0203 13.8246 39.0063 13.8556 38.9834C13.8866 38.9605 13.9107 38.9295 13.9252 38.8938C13.9397 38.8581 13.9442 38.8191 13.938 38.781L13.608 36.852C13.6027 36.8185 13.6053 36.7842 13.6158 36.7519C13.6262 36.7195 13.6441 36.6901 13.668 36.666L15.069 35.301C15.0965 35.2748 15.1164 35.2416 15.1266 35.2049C15.1367 35.1682 15.1367 35.1295 15.1265 35.0928C15.1164 35.0562 15.0964 35.023 15.0689 34.9968C15.0413 34.9706 15.0071 34.9523 14.97 34.944V34.944Z" fill="#005eb8"/>
</svg>
