<?xml version="1.0" encoding="UTF-8"?><svg width="48" height="48" viewBox="0 0 48 48" fill="none" xmlns="http://www.w3.org/2000/svg">
<path d="M24 48C37.2548 48 48 37.2548 48 24C48 10.7452 37.2548 0 24 0C10.7452 0 0 10.7452 0 24C0 37.2548 10.7452 48 24 48Z" fill="#e8f5fe"/>
<path d="M18 13.2H13.2V22.8H18V13.2Z" fill="#005eb8"/>
<path d="M24 14.3999L12 23.9999V35.9999H36V23.9999L24 14.3999Z" fill="#0091da"/>
<path d="M30 36H18V24L24 19.2L30 24V36Z" fill="white"/>
<path d="M18 36V24H30L18 36Z" fill="#e8f5fe"/>
<path d="M27 26.3999H21V35.9999H27V26.3999Z" fill="#8bbe4b"/>
<path d="M10.065 24H12L24 14.4L36 24H37.935C38.1212 23.9996 38.3027 23.9414 38.4544 23.8335C38.6061 23.7256 38.7207 23.5732 38.7822 23.3975C38.8437 23.2218 38.8493 23.0313 38.798 22.8523C38.7467 22.6733 38.6412 22.5146 38.496 22.3981L24 10.8L9.50398 22.3981C9.35874 22.5146 9.25322 22.6733 9.20196 22.8523C9.15069 23.0313 9.15621 23.2218 9.21775 23.3975C9.27929 23.5732 9.39382 23.7256 9.54556 23.8335C9.6973 23.9414 9.87878 23.9996 10.065 24V24Z" fill="#002f6c"/>
</svg>
